<svg xmlns="http://www.w3.org/2000/svg" version="1.2" baseProfile="tiny" x="0" y="0" width="45.3" height="45.3" viewBox="0 0 45.3 45.3" xml:space="preserve"><polygon fill="#333333" points="0 45.3 45.3 45.3 45.3 0 0 0 0 45.3 "/><path fill="#FFFFFF" d="M29.4 11.5c0.4 0.9 0.6 2.3 0.3 3.4 1.5 1.3 2 4.4 1.3 7 2.2 0.2 4.7-0.1 6.4 0.6 -1.6-0.2-3.7-0.6-5.7-0.5 -0.4 0-0.9 0-0.9 0.5 2.3 0.2 4.6 0.4 6.5 1 -1.9-0.3-4.2-0.8-6.5-0.8 -1 1.9-2.9 2.9-5.6 3.1 0.3 0.6 0.8 0.9 1 1.9 0.2 1.5-0.3 3.7 0.2 4.7 0.2 0.5 0.6 0.5 0.9 0.9 -0.7 0.8-2.3-0.1-2.5-0.9 -0.3-1.4 0.5-3.6-0.4-4.5 0.1 1.5-0.4 3.7 0.1 5.1 0.2 0.5 0.7 0.7 0.5 1.2 -3.1 0.3-1.8-4-2.3-6.5 -0.5 0-0.3 0.7-0.3 1 0 2.5 0.5 5.9-2.2 5.5 -0.1-0.5 0.4-0.7 0.5-1.2 0.5-1.4-0.1-3.5 0.1-5.1 -1 0.8 0.1 3.4-0.5 4.8 -0.4 0.8-1.5 1.1-2.4 0.8 0.1-0.6 0.7-0.5 1-1 0.4-0.8 0-1.9 0.1-3 -1.9 0.4-3.3-0.1-4.1-1.2 -0.3-0.5-0.4-1.2-0.8-1.6 -0.4-0.5-1-0.5-1.2-1.2 2.3-0.6 2.4 2.4 4.5 2.5 0.6 0 1-0.2 1.6-0.3 0.2-0.7 0.5-1.3 1-1.7 -2.6-0.4-4.7-1.2-5.7-3.1 -2.4 0.1-4.5 0.4-6.5 0.9 1.8-0.7 4.1-0.9 6.5-1 -0.1-0.9-1.4-0.6-2.2-0.6 -1.4 0.1-3.2 0.2-4.4 0.5 1.7-0.6 4-0.5 6.2-0.5 -0.7-2.1-0.4-5.6 1-6.8 -0.4-1.1-0.3-2.8 0.3-3.6 1.7 0.1 2.7 0.8 3.7 1.5 1.3-0.4 2.7-0.6 4.4-0.5 0.7 0 1.5 0.4 2.1 0.3 0.6-0.1 1.2-0.7 1.7-0.9C28.1 11.6 28.6 11.5 29.4 11.5L29.4 11.5z"/></svg>