<svg xmlns="http://www.w3.org/2000/svg" version="1.2" baseProfile="tiny" x="0" y="0" width="45.2" height="45.2" viewBox="0 0 45.2 45.2" xml:space="preserve"><polygon fill="#DE4A38" points="0 45.2 45.2 45.2 45.2 0 0 0 0 45.2 "/><path fill="#DE4A38" d="M18.8 25.4c-2.7 0-4.9 1.7-4.9 3.7 0 2 1.9 3.7 4.6 3.7 3.8 0 5.1-1.6 5.1-3.6 0-0.2 0-0.5-0.1-0.7 -0.3-1.2-1.5-1.8-2.9-2.8C20 25.5 19.4 25.4 18.8 25.4L18.8 25.4z"/><path fill="#FFFFFF" d="M24.3 16.6c0 1.5-0.8 2.7-2 3.6 -1.1 0.9-1.3 1.2-1.3 2 0 0.6 1.3 1.6 2 2.1 2.1 1.6 2.6 2.6 2.6 4.6 0 2.5-2.7 5-7.1 5 -3.9 0-7.1-1.6-7.1-4.1 0-2.6 2.7-5.2 6.6-5.2 0.4 0 0.8 0 1.2 0 -0.5-0.5-1-1-1-1.7 0-0.5 0.1-0.9 0.4-1.3 -0.2 0-0.4 0-0.6 0 -3.2 0-5-2.2-5-5 0-2.7 2.8-5.2 6.2-5.2 1.7 0 6.7 0 6.7 0l-1.5 1.6H22.4C23.7 13.6 24.3 15 24.3 16.6L24.3 16.6z"/><polygon fill="#FFFFFF" points="33.9 16.2 30.8 16.2 30.8 19.3 29.3 19.3 29.3 16.2 26.2 16.2 26.2 14.7 29.3 14.7 29.3 11.6 30.8 11.6 30.8 14.7 33.9 14.7 33.9 16.2 "/><path fill="#DE4A38" d="M18 12.4c-1.8-0.1-3 1.8-2.7 4.1 0.3 2.4 2 4 3.8 4.1 1.8 0.1 2.8-1.5 2.5-3.8C21.3 14.4 19.8 12.4 18 12.4L18 12.4z"/><path fill="#DE4A38" d="M18.8 25.4c-2.7 0-4.9 1.7-4.9 3.7 0 2 1.9 3.7 4.6 3.7 3.8 0 5.1-1.6 5.1-3.6 0-0.2 0-0.5-0.1-0.7 -0.3-1.2-1.5-1.8-2.9-2.8C20 25.5 19.4 25.4 18.8 25.4L18.8 25.4z"/></svg>