<svg xmlns="http://www.w3.org/2000/svg" version="1.2" baseProfile="tiny" x="0" y="0" width="45.2" height="45.2" viewBox="0 0 45.2 45.2" xml:space="preserve"><polygon fill="#0579B6" points="0 45.2 45.2 45.2 45.2 0 0 0 0 45.2 "/><polygon fill="#FFFFFF" points="11.59 33.4 16.43 33.4 16.43 18.83 11.59 18.83 11.59 33.4 "/><path fill="#FFFFFF" d="M14.01 16.84h-0.03c-1.62 0-2.67-1.12-2.67-2.52 0-1.43 1.08-2.52 2.74-2.52 1.66 0 2.68 1.09 2.71 2.52C16.75 15.72 15.7 16.84 14.01 16.84L14.01 16.84zM33.9 33.4h-4.85v-7.8c0-1.96-0.7-3.3-2.45-3.3 -1.34 0-2.13 0.91-2.49 1.77 -0.13 0.31-0.16 0.74-0.16 1.18v8.14h-4.84c0 0 0.06-13.21 0-14.57h4.84v2.06c0.65-0.99 1.8-2.4 4.37-2.4 3.19 0 5.58 2.08 5.58 6.56V33.4L33.9 33.4z"/></svg>