<svg xmlns="http://www.w3.org/2000/svg" version="1.2" baseProfile="tiny" x="0" y="0" width="45.2" height="45.2" viewBox="0 0 45.2 45.2" xml:space="preserve"><polygon fill="#2AA9E1" points="0 45.2 45.2 45.2 45.2 0 0 0 0 45.2 "/><path fill="#FFFFFF" d="M31.6 18c0 0.2 0 0.4 0 0.6 0 6.1-4.7 13.2-13.2 13.2 -2.6 0-5.1-0.8-7.1-2.1 0.4 0 0.7 0.1 1.1 0.1 2.2 0 4.2-0.7 5.8-2 -2 0-3.7-1.4-4.3-3.2 0.3 0.1 0.6 0.1 0.9 0.1 0.4 0 0.8-0.1 1.2-0.2 -2.1-0.4-3.7-2.3-3.7-4.5 0 0 0 0 0-0.1 0.6 0.3 1.3 0.6 2.1 0.6 -1.2-0.8-2.1-2.3-2.1-3.9 0-0.9 0.2-1.6 0.6-2.3 2.3 2.8 5.7 4.7 9.6 4.8 -0.1-0.3-0.1-0.7-0.1-1.1 0-2.6 2.1-4.6 4.6-4.6 1.3 0 2.5 0.6 3.4 1.5 1.1-0.2 2-0.6 2.9-1.1 -0.3 1.1-1.1 2-2 2.6 0.9-0.1 1.8-0.4 2.7-0.7C33.3 16.5 32.5 17.3 31.6 18L31.6 18z"/></svg>