<?xml version="1.0" encoding="utf-8"?>
<!-- Generator: Adobe Illustrator 17.0.0, SVG Export Plug-In . SVG Version: 6.00 Build 0)  -->
<svg version="1.2" baseProfile="tiny" id="Layer_1" xmlns="http://www.w3.org/2000/svg" xmlns:xlink="http://www.w3.org/1999/xlink"
	 x="0px" y="0px" width="45.201px" height="45.2px" viewBox="0 0 45.201 45.2" xml:space="preserve">
<polygon fill="#3C5A9A" points="0,45.2 45.201,45.2 45.201,0 0,0 0,45.2 "/>
<path fill="#FFFFFF" d="M27.461,22.664h-3.167c0,5.063,0,11.292,0,11.292h-4.692c0,0,0-6.169,0-11.292H17.37v-3.989h2.232v-2.582
	c0-1.846,0.877-4.737,4.735-4.737l3.477,0.014v3.873c0,0-2.113,0-2.523,0c-0.411,0-0.996,0.206-0.996,1.087v2.345h3.578
	L27.461,22.664L27.461,22.664z"/>
</svg>
