<?xml version="1.0" encoding="utf-8"?>
<!-- Generator: Adobe Illustrator 17.0.0, SVG Export Plug-In . SVG Version: 6.00 Build 0)  -->
<svg version="1.2" baseProfile="tiny" id="Layer_1" xmlns="http://www.w3.org/2000/svg" xmlns:xlink="http://www.w3.org/1999/xlink"
	 x="0px" y="0px" width="45.307px" height="45.305px" viewBox="0 0 45.307 45.305" xml:space="preserve">
<polygon fill="#333333" points="0,45.305 45.307,45.305 45.307,0 0,0 0,45.305 "/>
<path fill="#FFFFFF" d="M29.445,11.486c0.384,0.872,0.632,2.319,0.261,3.379c1.518,1.296,2.039,4.446,1.307,7.019
	c2.163,0.166,4.738-0.079,6.401,0.585c-1.555-0.2-3.678-0.592-5.683-0.455c-0.38,0.025-0.942-0.014-0.915,0.52
	c2.321,0.182,4.628,0.38,6.533,0.975c-1.89-0.309-4.184-0.779-6.533-0.845c-0.97,1.915-2.923,2.856-5.618,3.054
	c0.289,0.63,0.844,0.871,0.981,1.885c0.202,1.515-0.316,3.734,0.195,4.743c0.245,0.484,0.645,0.497,0.915,0.911
	c-0.66,0.781-2.296-0.088-2.483-0.911c-0.319-1.409,0.487-3.594-0.391-4.548c0.062,1.536-0.363,3.695,0.066,5.068
	c0.169,0.54,0.656,0.749,0.522,1.236c-3.068,0.311-1.786-3.972-2.287-6.499c-0.462,0.033-0.26,0.693-0.261,0.975
	c-0.014,2.468,0.505,5.854-2.155,5.524c-0.079-0.519,0.357-0.696,0.522-1.17c0.486-1.389-0.091-3.459,0.132-5.134
	c-1.016,0.765,0.107,3.438-0.523,4.808c-0.363,0.788-1.531,1.132-2.417,0.78c0.115-0.588,0.722-0.493,0.979-1.04
	c0.359-0.763,0.003-1.861,0.131-2.989c-1.88,0.375-3.338-0.054-4.051-1.235c-0.319-0.53-0.399-1.154-0.784-1.624
	c-0.384-0.47-0.997-0.533-1.175-1.169c2.328-0.561,2.417,2.395,4.508,2.469c0.641,0.023,0.974-0.186,1.567-0.325
	c0.166-0.745,0.522-1.301,1.045-1.691c-2.601-0.356-4.749-1.166-5.748-3.118c-2.366,0.117-4.529,0.432-6.534,0.909
	c1.819-0.66,4.064-0.897,6.468-0.975c-0.141-0.852-1.384-0.618-2.155-0.584c-1.434,0.063-3.238,0.241-4.378,0.455
	c1.653-0.589,3.969-0.516,6.207-0.52c-0.684-2.146-0.447-5.554,1.045-6.824c-0.423-1.065-0.291-2.809,0.261-3.639
	c1.666,0.075,2.676,0.801,3.723,1.495c1.299-0.369,2.664-0.553,4.442-0.455c0.749,0.041,1.526,0.377,2.09,0.324
	c0.553-0.052,1.162-0.672,1.698-0.909C28.054,11.633,28.645,11.515,29.445,11.486L29.445,11.486z"/>
</svg>
