<?xml version="1.0" encoding="utf-8"?>
<!-- Generator: Adobe Illustrator 17.0.0, SVG Export Plug-In . SVG Version: 6.00 Build 0)  -->
<svg version="1.2" baseProfile="tiny" id="Layer_1" xmlns="http://www.w3.org/2000/svg" xmlns:xlink="http://www.w3.org/1999/xlink"
	 x="0px" y="0px" width="45.185px" height="45.185px" viewBox="0 0 45.185 45.185" xml:space="preserve">
<polygon fill="#DE4A38" points="0,45.185 45.185,45.185 45.185,0 0,0 0,45.185 "/>
<path fill="#DE4A38" d="M18.759,25.37c-2.675-0.031-4.941,1.691-4.941,3.681c0,2.037,1.932,3.727,4.606,3.727
	c3.76,0,5.07-1.589,5.07-3.622c0-0.244-0.031-0.484-0.086-0.716c-0.296-1.154-1.465-1.782-2.918-2.791
	C19.965,25.477,19.383,25.376,18.759,25.37L18.759,25.37z"/>
<path fill="#FFFFFF" d="M24.32,16.624c0,1.473-0.814,2.659-1.967,3.561c-1.126,0.877-1.337,1.247-1.337,1.991
	c0,0.637,1.343,1.589,1.961,2.052c2.149,1.611,2.586,2.626,2.586,4.644c0,2.516-2.712,5.02-7.122,5.02
	c-3.87,0-7.135-1.574-7.135-4.089c0-2.558,2.708-5.219,6.577-5.219c0.423,0,0.808-0.012,1.209-0.012
	c-0.529-0.515-0.957-0.958-0.957-1.736c0-0.46,0.145-0.903,0.353-1.299c-0.211,0.017-0.425,0.028-0.645,0.028
	c-3.178,0-5.03-2.232-5.03-5.034c0-2.741,2.817-5.232,6.196-5.232c1.741,0,6.659,0,6.659,0l-1.489,1.561H22.43
	C23.664,13.566,24.32,15.023,24.32,16.624L24.32,16.624z"/>
<polygon fill="#FFFFFF" points="33.881,16.213 30.808,16.213 30.808,19.286 29.273,19.286 29.273,16.213 26.202,16.213 
	26.202,14.679 29.273,14.679 29.273,11.606 30.808,11.606 30.808,14.679 33.881,14.679 33.881,16.213 "/>
<path fill="#DE4A38" d="M18.005,12.381c-1.793-0.052-2.999,1.751-2.687,4.109c0.309,2.355,2.015,4.002,3.809,4.057
	c1.795,0.052,2.826-1.464,2.517-3.82C21.334,14.369,19.8,12.436,18.005,12.381L18.005,12.381z"/>
<path fill="#DE4A38" d="M18.759,25.37c-2.675-0.031-4.941,1.691-4.941,3.681c0,2.037,1.932,3.727,4.606,3.727
	c3.76,0,5.07-1.589,5.07-3.622c0-0.244-0.031-0.484-0.086-0.716c-0.296-1.154-1.465-1.782-2.918-2.791
	C19.965,25.477,19.383,25.376,18.759,25.37L18.759,25.37z"/>
</svg>
