<?xml version="1.0" encoding="utf-8"?>
<!-- Generator: Adobe Illustrator 17.0.0, SVG Export Plug-In . SVG Version: 6.00 Build 0)  -->
<svg version="1.2" baseProfile="tiny" id="Layer_1" xmlns="http://www.w3.org/2000/svg" xmlns:xlink="http://www.w3.org/1999/xlink"
	 x="0px" y="0px" width="45.201px" height="45.2px" viewBox="0 0 45.201 45.2" xml:space="preserve">
<polygon fill="#0579B6" points="0,45.2 45.201,45.2 45.201,0 0,0 0,45.2 "/>
<polygon fill="#FFFFFF" points="11.586,33.403 16.432,33.403 16.432,18.829 11.586,18.829 11.586,33.403 "/>
<path fill="#FFFFFF" d="M14.008,16.841h-0.033c-1.624,0-2.675-1.123-2.675-2.519c0-1.432,1.084-2.521,2.739-2.521
	c1.658,0,2.68,1.089,2.709,2.521C16.748,15.718,15.697,16.841,14.008,16.841L14.008,16.841z"/>
<path fill="#FFFFFF" d="M33.901,33.403h-4.846v-7.797c0-1.959-0.7-3.297-2.455-3.297c-1.337,0-2.135,0.905-2.486,1.774
	c-0.128,0.312-0.159,0.744-0.159,1.18v8.14h-4.843c0,0,0.061-13.208,0-14.573h4.843v2.063c0.646-0.993,1.795-2.405,4.366-2.405
	c3.187,0,5.58,2.083,5.58,6.559V33.403L33.901,33.403z"/>
</svg>
