<?xml version="1.0" encoding="utf-8"?>
<!-- Generator: Adobe Illustrator 17.0.0, SVG Export Plug-In . SVG Version: 6.00 Build 0)  -->
<svg version="1.2" baseProfile="tiny" id="Layer_1" xmlns="http://www.w3.org/2000/svg" xmlns:xlink="http://www.w3.org/1999/xlink"
	 x="0px" y="0px" width="45.207px" height="45.207px" viewBox="0 0 45.207 45.207" xml:space="preserve">
<polygon fill-rule="evenodd" fill="#FFFFFF" points="7.603,5.787 38.953,5.787 38.953,39.087 7.603,39.087 7.603,5.787 "/>
<path fill="#F58020" d="M29.529,33.906c0-10.074-8.151-18.272-18.172-18.272v-4.331c12.409,0,22.503,10.14,22.503,22.603H29.529
	L29.529,33.906z M21.877,33.9c0-2.831-1.097-5.491-3.086-7.489c-1.985-1.998-4.628-3.095-7.44-3.095v-4.332
	c8.191,0,14.858,6.691,14.858,14.916H21.877L21.877,33.9z M14.347,33.881c-1.657,0-2.999-1.343-2.999-3.002
	c0-1.654,1.342-2.999,2.999-2.999c1.659,0,3.003,1.345,3.003,2.999C17.35,32.537,16.006,33.881,14.347,33.881L14.347,33.881z M0,0
	v45.207h45.207V0H0L0,0z"/>
</svg>
