<?xml version="1.0" encoding="utf-8"?>
<!-- Generator: Adobe Illustrator 17.0.0, SVG Export Plug-In . SVG Version: 6.00 Build 0)  -->
<svg version="1.2" baseProfile="tiny" id="Layer_1" xmlns="http://www.w3.org/2000/svg" xmlns:xlink="http://www.w3.org/1999/xlink"
	 x="0px" y="0px" width="45.2px" height="45.2px" viewBox="0 0 45.2 45.2" xml:space="preserve">
<polygon fill="#2AA9E1" points="0,45.2 45.2,45.2 45.2,0 0,0 0,45.2 "/>
<path fill="#FFFFFF" d="M31.587,17.993c0.01,0.199,0.014,0.399,0.014,0.599c0,6.128-4.664,13.193-13.193,13.193
	c-2.618,0-5.055-0.767-7.108-2.083c0.365,0.045,0.734,0.063,1.107,0.063c2.174,0,4.17-0.739,5.757-1.983
	c-2.027-0.035-3.74-1.378-4.329-3.219c0.282,0.055,0.572,0.082,0.871,0.082c0.424,0,0.834-0.055,1.22-0.162
	c-2.118-0.426-3.717-2.302-3.717-4.548c0-0.018,0-0.038,0-0.058c0.626,0.348,1.34,0.559,2.1,0.58
	c-1.244-0.83-2.062-2.251-2.062-3.859c0-0.851,0.229-1.644,0.627-2.331c2.285,2.805,5.704,4.651,9.557,4.843
	c-0.079-0.338-0.12-0.692-0.12-1.056c0-2.56,2.077-4.635,4.638-4.635c1.331,0,2.538,0.562,3.384,1.463
	c1.055-0.207,2.048-0.594,2.945-1.124c-0.347,1.082-1.082,1.992-2.04,2.564c0.938-0.11,1.833-0.359,2.663-0.729
	C33.281,16.523,32.494,17.338,31.587,17.993L31.587,17.993z"/>
</svg>
