<svg xmlns="http://www.w3.org/2000/svg" xmlns:xlink="http://www.w3.org/1999/xlink" version="1.1" x="0px" y="0px" viewBox="-489 491 100 100" enable-background="new -489 491 100 100" xml:space="preserve"><path d="M-439,568.9c-13.3,0-22.1-8.8-22.1-17.7c15.5,2.2,28.7,2.2,44.2,0C-416.9,560.1-425.7,568.9-439,568.9z M-421.3,538  c-5,0-8.8-3.9-8.8-8.8c0-5,3.9-8.8,8.8-8.8c5,0,8.8,3.9,8.8,8.8C-412.5,534.1-416.4,538-421.3,538z M-456.7,538  c-5,0-8.8-3.9-8.8-8.8c0-5,3.9-8.8,8.8-8.8c5,0,8.8,3.9,8.8,8.8C-447.8,534.1-451.7,538-456.7,538z M-478.8,591  c4.4,0,8.8-8.8,17.7-8.8s13.3,8.8,22.2,8.8c8.8,0,13.2-8.8,22-8.8c11,0,13.3,8.8,17.7,8.8c2.2,0,4.4-2.2,4.4-4.4v-50.8  c0-59.7-88.4-59.7-88.4,0v50.8C-483.2,588.8-481,591-478.8,591z"></path></svg>